<svg xmlns="http://www.w3.org/2000/svg" viewBox="0 0 64 87.65"><defs><style>.cls-1{fill:#7c089f;}</style></defs><title>Asset 2</title><g id="Layer_2" data-name="Layer 2"><g id="Layer_1-2" data-name="Layer 1"><path class="cls-1" d="M10.89,74.47C37.3,112.57,42.69,48,42.69,48s45.05,0,0-34.46-31.8,15.9-31.8,15.9C11.61,30.75-10.91,43,10.89,74.47Z"/><path d="M12,73.74a53.23,53.23,0,0,0,4.85,6.18,19.69,19.69,0,0,0,5.93,4.65,7.67,7.67,0,0,0,3.37.77,6.67,6.67,0,0,0,3.21-1A16.14,16.14,0,0,0,34.1,78.6a61.81,61.81,0,0,0,5.28-14.9,140.1,140.1,0,0,0,2.81-15.78l.06-.45h.44c2.39-.41,4.78-.81,7.1-1.35A33.05,33.05,0,0,0,56.46,44a11.5,11.5,0,0,0,2.77-1.77,7.56,7.56,0,0,0,1.07-1.13c.15-.21.26-.43.39-.64A2,2,0,0,0,61,39.8a6,6,0,0,0,.32-3A14.62,14.62,0,0,0,61,35.28c-.21-.52-.35-1.05-.6-1.55-2-4.12-5.36-7.69-8.82-11a129.17,129.17,0,0,0-11.2-9.23A83.45,83.45,0,0,0,28.16,5.8a31,31,0,0,0-6.54-2.47,10.11,10.11,0,0,0-6.28.2A6.17,6.17,0,0,0,13,5.33a9.84,9.84,0,0,0-1.48,2.8,22.46,22.46,0,0,0-1,6.77,58.36,58.36,0,0,0,1.72,14.15l-.12-.31a1.62,1.62,0,0,1,.06,1.38,2.61,2.61,0,0,1-.24.44c-.14.2-.25.33-.35.45s-.4.43-.59.63l-1.09,1.1c-.71.73-1.37,1.47-2,2.24a24.44,24.44,0,0,0-3.15,5,22.9,22.9,0,0,0-2,11.51,36.38,36.38,0,0,0,3.1,11.6A65.74,65.74,0,0,0,12,73.74ZM9.83,75.2a67.09,67.09,0,0,1-6.35-11A38.65,38.65,0,0,1,.1,51.7,25.55,25.55,0,0,1,2.27,38.82a27.22,27.22,0,0,1,3.47-5.59c.68-.85,1.41-1.67,2.15-2.44L9,29.66l.49-.51L9.61,29l0,.1a1.15,1.15,0,0,0,.08,1l-.12-.32A60.83,60.83,0,0,1,7.63,14.85,25,25,0,0,1,8.79,7.17,12.69,12.69,0,0,1,10.72,3.5,8.89,8.89,0,0,1,14.14.83,13,13,0,0,1,22.28.49a33.65,33.65,0,0,1,7.16,2.73,87.51,87.51,0,0,1,12.58,8,132,132,0,0,1,11.4,9.51c3.56,3.45,7.08,7.1,9.36,11.87.29.58.47,1.24.71,1.87a14.66,14.66,0,0,1,.45,2,8.63,8.63,0,0,1-.5,4.25,3.52,3.52,0,0,1-.46,1c-.19.31-.37.63-.57.93A11.08,11.08,0,0,1,61,44.19a13.79,13.79,0,0,1-3.39,2.16,25.35,25.35,0,0,1-7.37,2,29.42,29.42,0,0,1-7.5.07h0l.5-.46A127.64,127.64,0,0,1,41,64.06c-.56,2.65-1.21,5.28-2,7.88a45.42,45.42,0,0,1-3,7.64,17.36,17.36,0,0,1-5.39,6.59,8.73,8.73,0,0,1-4.34,1.47,10,10,0,0,1-4.44-.91A22.3,22.3,0,0,1,15,81.61,54.31,54.31,0,0,1,9.83,75.2Z"/></g></g></svg>